<svg width="16" height="16" viewBox="0 0 16 16" fill="none" xmlns="http://www.w3.org/2000/svg">
<path fill-rule="evenodd" clip-rule="evenodd" d="M13.3333 10V12H15.3333V13.3334H13.3333V15.3334H12V13.3334H10V12H12V10H13.3333ZM7.83334 7.33337C9.71803 7.33337 11.2547 8.86556 11.3304 10.785L11.3333 10.9334V11.3334H9.33334V13.3334H2V10.9334C2 8.99484 3.48962 7.41419 5.35572 7.33637L5.5 7.33337H7.83334ZM6.66666 1.33337C7.95534 1.33337 9 2.37806 9 3.66672C9 4.91241 8.02381 5.93012 6.79469 5.99659L6.66666 6.00003C5.378 6.00003 4.33334 4.95534 4.33334 3.66672C4.33334 2.421 5.30953 1.40328 6.53866 1.33681L6.66666 1.33337Z" fill="#D6BD77"/>
</svg>
