<svg width="30" height="30" viewBox="0 0 30 30" fill="none" xmlns="http://www.w3.org/2000/svg">
<path d="M11.9375 18.9375L22.5313 8.34375C22.7813 8.09375 23.0729 7.96875 23.4063 7.96875C23.7396 7.96875 24.0313 8.09375 24.2813 8.34375C24.5313 8.59375 24.6563 8.89083 24.6563 9.235C24.6563 9.57917 24.5313 9.87583 24.2813 10.125L12.8125 21.625C12.5625 21.875 12.2708 22 11.9375 22C11.6042 22 11.3125 21.875 11.0625 21.625L5.68751 16.25C5.43751 16 5.31751 15.7033 5.32751 15.36C5.33751 15.0167 5.46793 14.7196 5.71876 14.4688C5.96959 14.2179 6.26668 14.0929 6.61001 14.0937C6.95335 14.0946 7.25001 14.2196 7.50001 14.4688L11.9375 18.9375Z" fill="#D6BD77"/>
</svg>
