<svg width="30" height="30" viewBox="0 0 30 30" fill="none" xmlns="http://www.w3.org/2000/svg">
<path d="M29.8008 12.6457L26.8102 6.66207C26.7 6.44183 26.5475 6.24546 26.3614 6.08416C26.1754 5.92286 25.9594 5.79979 25.7257 5.72198C25.4921 5.64417 25.2454 5.61315 24.9998 5.63069C24.7541 5.64822 24.5144 5.71397 24.2941 5.82418L21.3797 7.28082L15.2402 5.6566C15.0827 5.61561 14.9173 5.61561 14.7598 5.6566L8.62032 7.28082L5.70587 5.82418C5.48565 5.71397 5.24588 5.64822 5.00025 5.63069C4.75462 5.61315 4.50795 5.64417 4.27431 5.72198C4.04067 5.79979 3.82465 5.92286 3.63857 6.08416C3.4525 6.24546 3.30003 6.44183 3.18985 6.66207L0.199228 12.6445C0.0890207 12.8647 0.0232718 13.1045 0.00573645 13.3501C-0.0117989 13.5957 0.0192227 13.8424 0.0970299 14.0761C0.174837 14.3097 0.297905 14.5257 0.459207 14.7118C0.620509 14.8979 0.816885 15.0503 1.03712 15.1605L4.20118 16.7437L10.7039 21.3879C10.7998 21.4559 10.9075 21.5056 11.0215 21.5343L18.5215 23.4093C18.6786 23.4487 18.8431 23.4468 18.9992 23.4036C19.1553 23.3605 19.2976 23.2777 19.4121 23.1632L24.0996 18.4757L25.8668 16.7086L28.9629 15.1605C29.4074 14.938 29.7453 14.5481 29.9024 14.0765C30.0596 13.605 30.023 13.0903 29.8008 12.6457ZM23.3684 16.5562L19.3359 13.3265C19.1553 13.1819 18.9275 13.1091 18.6965 13.1223C18.4654 13.1355 18.2474 13.2337 18.0844 13.398C15.9973 15.5003 13.6711 15.2343 12.1875 14.2968L17.2547 9.37496H20.9824L24.1711 15.7511L23.3684 16.5562ZM18.4617 21.4617L11.6508 19.7589L5.88517 15.641L9.16642 9.07848L15 7.53277L16.1484 7.83629L10.875 12.955L10.8656 12.9656C10.6671 13.1641 10.5157 13.4046 10.4226 13.6695C10.3295 13.9343 10.297 14.2167 10.3276 14.4958C10.3582 14.7748 10.4511 15.0434 10.5994 15.2818C10.7477 15.5202 10.9476 15.7222 11.1844 15.873C13.5938 17.4117 16.5012 17.1621 18.791 15.2871L22.0313 17.8898L18.4617 21.4617ZM15.4477 25.5398C15.397 25.7424 15.2802 25.9223 15.1156 26.051C14.9511 26.1796 14.7483 26.2497 14.5395 26.25C14.4624 26.25 14.3857 26.2406 14.3109 26.2218L9.42306 24.9996C9.30885 24.9714 9.20107 24.9216 9.10548 24.8531L6.01759 22.6476C5.82772 22.4985 5.70268 22.282 5.66849 22.043C5.6343 21.804 5.69361 21.5611 5.83406 21.3648C5.97451 21.1684 6.18528 21.0339 6.42248 20.989C6.65968 20.9442 6.90503 20.9926 7.10743 21.1242L10.05 23.2265L14.7656 24.4031C15.0068 24.4634 15.2141 24.6171 15.342 24.8302C15.4699 25.0434 15.5079 25.2986 15.4477 25.5398Z" fill="#D6BD77"/>
</svg>
