<svg width="40" height="40" viewBox="0 0 40 40" fill="none" xmlns="http://www.w3.org/2000/svg">
<path d="M23.125 23.125C23.125 24.1475 22.6338 25.055 21.875 25.625V30C21.875 30.4973 21.6775 30.9742 21.3258 31.3258C20.9742 31.6775 20.4973 31.875 20 31.875C19.5027 31.875 19.0258 31.6775 18.6742 31.3258C18.3225 30.9742 18.125 30.4973 18.125 30V25.625C17.6989 25.3054 17.3615 24.8822 17.1449 24.3955C16.9284 23.9088 16.8398 23.3749 16.8876 22.8444C16.9355 22.3138 17.1181 21.8043 17.4183 21.3643C17.7184 20.9242 18.126 20.5681 18.6025 20.3299C19.0789 20.0917 19.6083 19.9792 20.1405 20.0032C20.6726 20.0271 21.1898 20.1867 21.6429 20.4667C22.096 20.7468 22.47 21.138 22.7294 21.6032C22.9888 22.0685 23.125 22.5923 23.125 23.125Z" fill="#D6BD77"/>
<path d="M12.5 8.75C12.5 6.76088 13.2902 4.85322 14.6967 3.4467C16.1032 2.04018 18.0109 1.25 20 1.25C21.9891 1.25 23.8968 2.04018 25.3033 3.4467C26.7098 4.85322 27.5 6.76088 27.5 8.75V12.5H30C31.3261 12.5 32.5979 13.0268 33.5355 13.9645C34.4732 14.9021 35 16.1739 35 17.5V33.75C35 35.0761 34.4732 36.3479 33.5355 37.2855C32.5979 38.2232 31.3261 38.75 30 38.75H10C8.67392 38.75 7.40215 38.2232 6.46447 37.2855C5.52678 36.3479 5 35.0761 5 33.75V17.5C5 16.1739 5.52678 14.9021 6.46447 13.9645C7.40215 13.0268 8.67392 12.5 10 12.5H12.5V8.75ZM24.375 8.75C24.375 7.58968 23.9141 6.47688 23.0936 5.65641C22.2731 4.83594 21.1603 4.375 20 4.375C18.8397 4.375 17.7269 4.83594 16.9064 5.65641C16.0859 6.47688 15.625 7.58968 15.625 8.75V12.5H24.375V8.75ZM10 15C9.33696 15 8.70107 15.2634 8.23223 15.7322C7.76339 16.2011 7.5 16.837 7.5 17.5V33.75C7.5 34.413 7.76339 35.0489 8.23223 35.5178C8.70107 35.9866 9.33696 36.25 10 36.25H30C30.663 36.25 31.2989 35.9866 31.7678 35.5178C32.2366 35.0489 32.5 34.413 32.5 33.75V17.5C32.5 16.837 32.2366 16.2011 31.7678 15.7322C31.2989 15.2634 30.663 15 30 15H10Z" fill="#D6BD77"/>
</svg>
