<svg width="24" height="24" viewBox="0 0 24 24" fill="none" xmlns="http://www.w3.org/2000/svg">
<path d="M15.4502 16.52L12.4402 13.51C12.3302 13.4 12.2002 13.38 12.1302 13.38C12.0602 13.38 11.9302 13.4 11.8202 13.51L8.80016 16.53C8.46016 16.87 7.93016 17.42 6.16016 17.42L9.87016 21.12C10.4327 21.6818 11.1952 21.9974 11.9902 21.9974C12.7852 21.9974 13.5477 21.6818 14.1102 21.12L17.8302 17.41C16.9202 17.41 16.1602 17.23 15.4502 16.52ZM8.80016 7.47005L11.8202 10.49C11.9002 10.57 12.0202 10.62 12.1302 10.62C12.2402 10.62 12.3602 10.57 12.4402 10.49L15.4302 7.50005C16.1402 6.76005 16.9502 6.59005 17.8602 6.59005L14.1402 2.88005C13.5777 2.31824 12.8152 2.00269 12.0202 2.00269C11.2252 2.00269 10.4627 2.31824 9.90016 2.88005L6.19016 6.58005C7.95016 6.58005 8.49016 7.16005 8.80016 7.47005Z" fill="#D6BD77"/>
<path d="M21.1103 9.84995L18.8603 7.58995H17.6003C17.0603 7.58995 16.5203 7.80995 16.1503 8.19995L13.1503 11.1999C12.8703 11.4799 12.5003 11.6199 12.1303 11.6199C11.7493 11.6146 11.3846 11.4644 11.1103 11.1999L8.09029 8.16995C7.71029 7.78995 7.19029 7.56995 6.64029 7.56995H5.17029L2.88029 9.86995C2.31849 10.4324 2.00293 11.1949 2.00293 11.9899C2.00293 12.7849 2.31849 13.5474 2.88029 14.1099L5.17029 16.4099H6.65029C7.19029 16.4099 7.71029 16.1899 8.10029 15.8099L11.1203 12.7899C11.4003 12.5099 11.7703 12.3699 12.1403 12.3699C12.5103 12.3699 12.8803 12.5099 13.1603 12.7899L16.1703 15.7999C16.5503 16.1799 17.0703 16.3999 17.6203 16.3999H18.8803L21.1303 14.1399C21.6949 13.5676 22.0099 12.7948 22.0061 11.9908C22.0024 11.1868 21.6803 10.417 21.1103 9.84995Z" fill="#D6BD77"/>
</svg>
